HIERARCHY
ROOT Bip001_Pelvis
{
  OFFSET 7.937 94.8971 -8.5489
  CHANNELS 6 Xposition Yposition Zposition Zrotation Xrotation Yrotation
  JOINT Bip001_Spine
  {
    OFFSET 1.44608e-005 10.4157 -0.0118244
    CHANNELS 3 Zrotation Xrotation Yrotation
    JOINT Bip001_L_Thigh
    {
      OFFSET 11.2582 -10.4157 0.0118432
      CHANNELS 3 Zrotation Xrotation Yrotation
      JOINT Bip001_L_Calf
      {
        OFFSET -0.720717 -44.8687 0.366937
        CHANNELS 3 Zrotation Xrotation Yrotation
        JOINT Bip001_L_Foot
        {
          OFFSET -0.664439 -41.3745 -3.62995
          CHANNELS 3 Zrotation Xrotation Yrotation
          JOINT Bip001_L_Toe0
          {
            OFFSET 0.0541047 -10.4146 13.4033
            CHANNELS 3 Zrotation Xrotation Yrotation
            End Site
            {
              OFFSET -1.04503e-005 0 7.70137
            }
          }
        }
      }
    }
    JOINT Bip001_R_Thigh
    {
      OFFSET -11.2582 -10.4156 0.0118122
      CHANNELS 3 Zrotation Xrotation Yrotation
      JOINT Bip001_R_Calf
      {
        OFFSET 0.72059 -44.8687 0.36676
        CHANNELS 3 Zrotation Xrotation Yrotation
        JOINT Bip001_R_Foot
        {
          OFFSET 0.664321 -41.3745 -3.62979
          CHANNELS 3 Zrotation Xrotation Yrotation
          JOINT Bip001_R_Toe0
          {
            OFFSET -0.05417 -10.4146 13.4033
            CHANNELS 3 Zrotation Xrotation Yrotation
            End Site
            {
              OFFSET -1.04873e-005 0 7.70137
            }
          }
        }
      }
    }
    JOINT Bip001_Spine1
    {
      OFFSET 1.90638e-005 14.8539 1.10727
      CHANNELS 3 Zrotation Xrotation Yrotation
      JOINT Bip001_Spine2
      {
        OFFSET 2.28934e-005 14.7848 -1.7233
        CHANNELS 3 Zrotation Xrotation Yrotation
        JOINT Bip001_Neck
        {
          OFFSET 2.24514e-005 15.6905 -0.498826
          CHANNELS 3 Zrotation Xrotation Yrotation
          JOINT Bip001_L_Clavicle
          {
            OFFSET 6.17691 -0.000591152 0.00852867
            CHANNELS 3 Zrotation Xrotation Yrotation
            JOINT Bip001_L_UpperArm
            {
              OFFSET 11.773 -0.0611878 0.00197697
              CHANNELS 3 Zrotation Xrotation Yrotation
              JOINT Bip001_L_Forearm
              {
                OFFSET 26.4515 0.0817568 -2.19579
                CHANNELS 3 Zrotation Xrotation Yrotation
                JOINT Bip001_L_Hand
                {
                  OFFSET 32.8677 0.156744 1.67112
                  CHANNELS 3 Zrotation Xrotation Yrotation
                  JOINT Bip001_L_Finger0
                  {
                    OFFSET 6.16268 -2.25226 6.01674
                    CHANNELS 3 Zrotation Xrotation Yrotation
                    End Site
                    {
                      OFFSET 4.30499 -1.46662 0.618148
                    }
                  }
                  JOINT Bip001_L_Finger1
                  {
                    OFFSET 11.2957 -0.718374 -0.201963
                    CHANNELS 3 Zrotation Xrotation Yrotation
                    End Site
                    {
                      OFFSET 6.31952 -0.405163 -0.0802303
                    }
                  }
                }
              }
            }
          }
          JOINT Bip001_R_Clavicle
          {
            OFFSET -6.17691 -0.000574027 0.00851165
            CHANNELS 3 Zrotation Xrotation Yrotation
            JOINT Bip001_R_UpperArm
            {
              OFFSET -11.773 -0.0611516 0.00194365
              CHANNELS 3 Zrotation Xrotation Yrotation
              JOINT Bip001_R_Forearm
              {
                OFFSET -26.4514 0.0822334 -2.19736
                CHANNELS 3 Zrotation Xrotation Yrotation
                JOINT Bip001_R_Hand
                {
                  OFFSET -32.8677 0.156817 1.67144
                  CHANNELS 3 Zrotation Xrotation Yrotation
                  JOINT Bip001_R_Finger0
                  {
                    OFFSET -6.1627 -2.25224 6.0167
                    CHANNELS 3 Zrotation Xrotation Yrotation
                    End Site
                    {
                      OFFSET -4.30499 -1.46662 0.618134
                    }
                  }
                  JOINT Bip001_R_Finger1
                  {
                    OFFSET -11.2958 -0.718344 -0.201994
                    CHANNELS 3 Zrotation Xrotation Yrotation
                    End Site
                    {
                      OFFSET -6.31952 -0.405146 -0.0802475
                    }
                  }
                }
              }
            }
          }
          JOINT Bip001_Head
          {
            OFFSET 1.11782e-005 11.4912 2.09908
            CHANNELS 3 Zrotation Xrotation Yrotation
            End Site
            {
              OFFSET 2.95144e-005 21.2823 -2.83069e-005
            }
          }
        }
      }
    }
  }
}
MOTION
Frames:	16
Frame Time:	0.04
12.3831 94.6983 -9.14893 -2.04357 2.75299 11.6595 -1.44222 0.427316 1.35294 4.21676 -17.1463 7.96724 0.912342 22.4507 -9.02865 0.886951 -8.35002 -2.1462 0.784792 -10.0454 -0.200154 -8.22089 -5.9875 -5.89752 0.212361 13.5535 -0.942576 2.26813 -8.02157 -12.2464 1.4954 -11.8035 -0.412103 -2.62763 0.82246 2.74449 -2.62764 0.822466 2.74449 1.91299 -4.79185 -7.16547 -27.0288 8.13926 -10.5118 -50.3371 39.1867 12.3821 16.5701 6.8727 -27.761 -6.55166 -0.0428071 -3.1995 3.18055e-015 0 -3.18055e-015 3.18055e-015 3.18056e-015 -1.59028e-015 3.2516 7.85218 21.816 32.6442 -22.3553 51.8621 -37.2267 2.00629 58.2033 -35.6391 9.05782 -5.82019 -7.95139e-015 -6.36111e-015 2.38542e-015 -7.95139e-015 0 3.18055e-015 -5.40287 -2.02635 -5.37023 
12.2954 94.9549 -9.26371 -2.01216 3.04112 13.2819 -1.528 0.428459 1.33989 3.93344 -17.0044 7.03345 0.622637 20.8478 -8.74746 0.858879 -7.14827 -2.91189 0.752667 -10.1004 -0.354672 -8.02604 -5.07177 -6.4428 0.0825894 11.7545 -2.57568 2.49354 -7.11307 -12.059 1.39346 -11.8693 -0.0515214 -2.83389 0.814797 2.71567 -2.8339 0.814799 2.71567 3.70696 -4.023 -8.09981 -28.0807 6.90465 -10.6685 -51.5904 36.5825 14.3804 16.9278 6.98177 -28.8717 -5.061 0.161177 -2.44054 4.77083e-015 0 -1.59028e-015 4.77083e-015 0 -0 2.44095 6.77037 20.0069 34.2568 -21.8083 53.538 -40.2442 2.56313 58.7542 -31.8382 8.67368 -8.84045 -6.36111e-015 0 -0 -6.36111e-015 0 -7.95139e-016 -6.4675 -2.11604 -5.60019 
12.2695 95.0975 -9.25634 -1.78707 3.02751 13.8245 -1.56883 0.431132 1.21934 3.74155 -16.4727 6.37076 0.187848 19.7382 -8.51829 0.951158 -6.46037 -2.79441 0.736164 -10.1132 -0.390398 -8.05357 -4.53905 -6.0594 0.0731077 11.0157 -3.33546 2.4184 -6.73934 -12.2604 1.48359 -11.9264 0.0873612 -2.90583 0.830177 2.47553 -2.90584 0.830179 2.47554 3.88934 -3.11199 -8.39251 -28.3594 5.75687 -10.1677 -52.4444 36.5239 16.204 15.9916 5.66685 -28.6146 -3.07548 0.289747 -1.97289 -0 -6.36111e-015 -0 -1.59028e-015 -9.54167e-015 -0 1.99399 5.60647 19.4193 37.246 -22.1466 55.0688 -44.8405 5.49847 61.2195 -31.4245 9.35948 -7.4685 -7.95139e-015 3.18055e-015 1.59028e-015 -7.95139e-015 0 1.59028e-015 -6.35268 -2.05591 -5.84669 
12.2892 95.194 -9.17596 -1.39002 2.70125 13.5912 -1.51603 0.45996 1.01126 3.60422 -15.529 6.55233 -0.262076 18.8323 -8.44282 1.1132 -6.02649 -2.47922 0.719971 -10.1285 -0.438594 -8.41762 -4.0217 -5.56568 0.265523 10.6496 -2.83099 2.16429 -6.5904 -12.7726 1.54199 -11.9403 0.0381526 -2.78498 0.894247 2.05931 -2.78497 0.894242 2.0593 2.64618 -2.20034 -7.77255 -27.6358 4.93043 -9.33055 -53.2832 37.5573 17.3197 15.518 5.03431 -27.3511 -2.98717 0.18091 -1.85918 1.59028e-015 3.18055e-015 -0 1.59028e-015 6.36111e-015 -1.59028e-015 3.58924 5.04164 19.7219 39.4554 -23.6813 53.0295 -45.6581 3.50243 69.1793 -28.5933 11.02 -7.27102 4.77083e-015 0 2.38542e-015 -1.59028e-015 3.18056e-015 7.95139e-016 -5.53532 -2.21395 -5.74958 
12.3098 95.2501 -9.10989 -1.05878 2.39966 12.9333 -1.41745 0.442266 0.958481 3.46166 -14.6986 6.81395 -0.543698 18.2534 -7.92264 1.14597 -5.82815 -2.47074 0.703814 -10.1481 -0.483153 -8.75199 -3.71342 -6.05579 0.0658703 10.5149 -2.41908 2.43839 -6.44757 -12.0682 1.33084 -11.9444 0.207046 -2.63386 0.861638 1.94791 -2.63386 0.86164 1.9479 1.60471 -1.44146 -7.3558 -26.987 4.3505 -9.14444 -54.5316 39.2072 18.3956 15.6662 5.28701 -25.6365 -4.72075 0.00427776 -1.31316 0 9.54166e-015 -0 -1.32417e-031 9.54167e-015 7.95139e-016 6.38393 4.85343 19.3125 41.8348 -25.8557 51.7484 -44.5681 3.88335 77.3638 -28.912 11.7114 -7.13059 -1.59028e-015 6.36111e-015 -1.59028e-015 -3.18055e-015 3.18056e-015 -1.59028e-015 -4.98099 -2.35695 -5.7544 
12.3299 95.2711 -9.03134 -0.776507 1.96601 12.0297 -1.34094 0.429529 0.971933 3.36242 -13.8586 6.18293 -0.955835 17.9172 -7.01474 1.16587 -5.84478 -1.90855 0.714968 -10.1201 -0.389319 -9.04372 -3.4514 -6.35314 -0.0528461 10.5788 -1.81059 2.74235 -6.37396 -11.4943 1.10811 -11.9395 0.328469 -2.53042 0.836965 1.96887 -2.53042 0.836964 1.96886 0.88564 -1.12367 -7.00063 -26.4095 4.21498 -9.21785 -55.5223 40.0657 19.0367 15.9554 6.72247 -24.1244 -7.35941 -0.197895 -0.707002 -2.38542e-015 0 -0 -3.18055e-015 -3.18056e-015 7.95139e-016 9.56555 5.11605 18.2758 41.6218 -26.497 48.7334 -45.3037 3.37932 85.1142 -30.0607 12.0628 -6.77591 6.36111e-015 -3.18055e-015 7.95139e-016 4.77083e-015 0 1.59028e-015 -4.69284 -2.16835 -5.66169 
12.3429 95.2875 -8.8863 -0.503891 1.38317 11.0329 -1.27152 0.439943 0.937831 3.24254 -12.8852 5.84588 -1.08479 17.6532 -6.11885 1.0388 -5.96612 -1.54487 0.723836 -10.1009 -0.31057 -9.31472 -3.0556 -6.19905 -0.0477442 10.612 -1.56256 3.00407 -6.31322 -10.8561 0.888965 -11.9317 0.44526 -2.43968 0.859471 1.89569 -2.43968 0.859471 1.89569 0.501776 -1.14816 -6.55638 -26.0664 4.32923 -9.11199 -55.3903 39.1233 18.1435 15.4732 9.76013 -22.4035 -8.89688 -0.226365 -0.621699 9.93129e-032 9.54166e-015 -5.96354e-016 2.20695e-032 3.18056e-015 -3.97569e-016 12.6033 5.62279 17.0098 38.0722 -23.6787 41.8386 -47.4088 -0.423819 91.42 -30.9586 10.7259 -7.04255 3.18055e-015 3.18055e-015 2.38542e-015 3.18055e-015 0 3.18055e-015 -4.58845 -1.90256 -5.34284 
12.2079 95.323 -8.7385 -0.451971 0.889279 9.89949 -1.12315 0.404441 0.869232 3.42524 -12.0341 5.80112 -1.3049 17.5022 -4.96565 0.84504 -6.13875 -1.49787 0.725258 -10.088 -0.263286 -9.3093 -2.7531 -5.92266 -0.139426 10.5009 -1.16444 3.01247 -6.15315 -10.3251 0.820894 -11.9399 0.522563 -2.16061 0.792172 1.75474 -2.16061 0.792171 1.75474 -0.112869 -1.02421 -5.88887 -25.8236 4.5051 -9.4327 -56.2797 38.9549 17.9628 14.9739 10.1097 -20.8889 -9.05341 -0.251556 -0.339733 -1.98785e-016 0 -2.98177e-016 -3.97569e-016 -3.18056e-015 -4.96962e-016 15.7703 5.96442 16.1164 33.5992 -17.9096 32.9351 -46.5804 -3.47989 95.9275 -34.3672 11.7663 -5.34684 0 0 -1.59028e-015 1.59028e-015 -3.18056e-015 -0 -4.28157 -1.72754 -4.92077 
12.0501 95.3235 -8.6511 -0.230474 0.474499 8.78074 -0.949091 0.360275 0.727739 3.36132 -11.219 5.938 -1.43322 17.271 -4.35652 0.660907 -6.25018 -1.13608 0.744832 -10.0504 -0.134829 -9.63813 -2.76461 -5.71871 -0.118568 10.912 -0.662246 3.14747 -6.28031 -9.70999 0.571816 -11.8833 0.554126 -1.86086 0.708562 1.46619 -1.86086 0.708561 1.46619 -1.23139 -1.12588 -4.9755 -25.6267 4.89246 -9.31957 -56.4899 38.7825 17.3162 14.1309 9.51408 -19.9893 -8.26821 -0.196604 -0.359012 -5.96354e-016 0 -0 -5.96354e-016 0 -1.98785e-016 19.2751 6.58151 15.7794 31.1657 -10.7397 22.6366 -45.3519 -4.62848 98.827 -34.4097 10.1738 -2.8301 -6.36111e-015 -3.18055e-015 1.59028e-015 -6.36111e-015 -3.18056e-015 3.18055e-015 -3.59894 -1.41372 -4.47327 
11.8068 95.2874 -8.59371 0.0791355 -0.00521108 7.87076 -0.833414 0.369078 0.592476 3.15298 -10.5072 6.07084 -1.21918 17.1545 -3.83283 0.264518 -6.38291 -0.987837 0.765886 -10.007 -0.00393412 -9.9346 -3.00222 -5.73733 -0.191914 11.9209 0.255313 3.14937 -6.79385 -9.40028 0.371587 -11.8194 0.497574 -1.6561 0.729499 1.19307 -1.65609 0.729495 1.19305 -2.01679 -1.42055 -4.1741 -25.7777 5.47183 -9.36047 -56.3828 38.6691 16.4757 13.2882 7.55941 -19.7571 -7.01841 -0.22186 0.0423044 -3.97569e-016 -3.18055e-015 7.95139e-016 -1.59028e-015 0 1.19271e-015 23.8852 7.70401 15.7058 29.1638 -2.76867 11.4356 -40.9861 -2.73778 99.1984 -29.7223 7.76233 -1.08378 0 3.18055e-015 -0 1.76556e-031 3.18056e-015 -3.18055e-015 -2.819 -1.36384 -4.06729 
11.4207 95.2631 -8.45074 0.125939 -0.771865 7.16877 -0.75011 0.4411 0.522248 3.471 -9.72312 6.34084 -1.22523 17.3252 -3.82189 -0.0235362 -6.64997 -0.657123 0.782708 -9.97646 0.0940663 -9.75654 -2.76541 -5.32887 -0.137375 12.5274 1.06148 2.79281 -7.17044 -9.67055 0.313074 -11.7856 0.405042 -1.49426 0.875307 1.0524 -1.49426 0.875307 1.0524 -1.8201 -2.02193 -3.8459 -26.3358 6.35469 -9.93 -56.3274 38.2365 15.7536 12.3233 5.75068 -20.1181 -5.44846 -0.262796 -0.044547 7.95139e-016 3.18055e-015 -1.59028e-015 1.76556e-031 6.36111e-015 -1.59028e-015 28.4602 9.30955 15.5769 30.3102 4.54578 1.05143 -31.4511 1.52095 95.7584 -21.8563 6.20287 -2.35162 -7.95139e-016 -1.59028e-015 -6.36111e-015 -1.59028e-015 -3.97569e-016 -3.18055e-015 -2.56896 -0.986337 -3.71665 
10.9911 95.2688 -8.28229 0.150808 -1.63379 6.14615 -0.651027 0.563018 0.507856 3.83287 -8.71326 6.97227 -1.19864 17.2789 -3.93561 -0.339384 -6.85738 -0.292406 0.784287 -9.94806 0.159859 -9.46276 -2.45403 -4.26668 -0.143637 12.9086 1.49516 2.54005 -7.42427 -9.96284 0.190934 -11.737 0.320637 -1.30837 1.12018 1.02353 -1.30837 1.12018 1.02352 -2.13907 -2.63655 -3.40844 -26.3005 7.34785 -10.6285 -56.8603 38.8166 15.3611 11.7791 2.43256 -20.891 -4.09641 -0.316342 -0.178106 -1.59028e-015 3.18055e-015 -7.95139e-016 -1.59028e-015 6.36111e-015 7.95139e-016 32.0324 10.5276 15.3383 35.2306 9.20096 -7.11253 -21.2025 4.21823 85.5979 -9.81549 3.72071 -8.4688 3.18055e-015 0 -2.38542e-015 6.36111e-015 2.78299e-015 -3.18055e-015 -2.06174 -0.671357 -3.46263 
10.5093 95.2764 -8.18582 0.119555 -2.43827 5.24648 -0.544992 0.726667 0.448466 4.195 -7.88014 6.47802 -1.43542 17.212 -3.11902 -0.690512 -7.0046 0.203601 0.785794 -9.91093 0.23963 -9.11401 -2.24388 -3.34239 -0.180472 13.2752 1.93225 2.32939 -7.6527 -10.2379 0.0163975 -11.6797 0.255386 -1.11455 1.44893 0.904741 -1.11454 1.44892 0.904733 -2.17505 -3.25317 -2.931 -26.1209 8.36566 -11.5737 -57.3949 38.0628 14.8995 11.8482 0.737741 -22.0972 -3.47295 -0.330665 -1.20054 1.59028e-015 3.18055e-015 -1.59028e-015 0 3.18056e-015 -0 33.9969 11.3092 14.8874 41.7948 20.2658 -10.3756 -7.26393 -6.90736 68.7223 2.11041 3.52236 -22.346 9.54166e-015 9.54166e-015 -3.18055e-015 6.36111e-015 6.36111e-015 -0 -2.06842 -0.865142 -2.99379 
10.1729 95.2941 -8.04433 0.461872 -2.99491 4.20705 -0.523724 0.860087 0.355868 4.01757 -6.84061 6.71029 -1.29422 16.4945 -2.87218 -1.07643 -6.89129 0.625056 0.79227 -9.86766 0.362415 -9.39679 -2.35639 -3.09899 -0.0430657 13.9852 2.64334 2.25856 -8.09575 -10.0193 -0.283742 -11.6146 0.281384 -1.10471 1.71671 0.719994 -1.10471 1.71671 0.719999 -2.27839 -3.50594 -2.24127 -25.2744 8.83153 -12.1679 -57.2401 38.7924 12.9854 10.9491 -1.13997 -22.8703 -2.74332 -0.520559 -2.19468 1.59028e-015 0 -0 3.18055e-015 0 -0 35.5488 11.6149 14.6709 44.166 30.907 -8.26022 9.85878 -23.646 54.3317 0.828128 2.66563 -26.7372 -3.18055e-015 6.36111e-015 1.59028e-015 -3.18055e-015 9.54167e-015 -0 -1.73963 -1.34029 -2.42314 
9.75945 95.3179 -7.99235 0.606992 -3.48464 3.38047 -0.394556 0.985713 0.256571 3.99941 -6.06681 7.29373 -1.11037 15.9993 -2.50177 -1.53307 -6.76132 0.463647 0.790385 -9.84917 0.379539 -9.50541 -2.40975 -3.09565 -0.0347452 14.4142 3.28562 2.23404 -8.3728 -9.70639 -0.600377 -11.5347 0.302655 -0.87871 1.96942 0.520305 -0.878715 1.96943 0.520308 -2.74189 -3.93662 -1.61946 -24.7218 9.47586 -12.488 -56.9913 39.7377 11.6746 10.5581 -2.73951 -23.9422 -2.92415 -0.78978 -3.35159 -4.77083e-015 0 1.59028e-015 -3.18055e-015 -3.18056e-015 -0 37.0946 12.0342 14.4755 45.9761 32.2184 -8.61843 11.7442 -31.131 43.6073 -0.1715 1.50885 -23.1963 -3.97569e-016 3.18055e-015 -1.59028e-015 -3.97569e-016 0 -0 -1.49647 -1.27619 -1.97924 
9.27004 95.3403 -8.3118 0.172181 -3.4103 2.57012 -0.170681 0.985074 0.194525 4.53601 -6.39302 7.53353 -1.07871 16.2986 -1.64224 -1.95383 -6.76259 0.159877 0.750718 -9.84088 0.384658 -9.00049 -2.94643 -1.92992 0.109928 14.3534 2.70068 2.12511 -8.08569 -9.57294 -0.78997 -11.4829 0.342727 -0.451485 1.96937 0.391153 -0.451487 1.96938 0.391154 -2.47966 -4.07137 -1.23397 -24.8473 9.84664 -13.1125 -56.6353 40.2294 11.0347 10.8332 -2.57714 -25.409 -3.52043 -0.918026 -4.42657 -3.18055e-015 3.18055e-015 -1.59028e-015 1.76556e-031 6.36111e-015 -1.59028e-015 36.1644 11.6502 13.8084 48.8563 39.4877 -9.31971 10.5714 -37.4707 36.604 0.543464 0.796953 -19.9065 1.78906e-015 -3.18055e-015 -1.59028e-015 9.93923e-016 -3.18056e-015 -7.95139e-016 -1.97291 -1.46664 -1.43425 
